<?xml version="1.0" encoding="utf-8"?>
<!-- Generator: Adobe Illustrator 23.0.3, SVG Export Plug-In . SVG Version: 6.00 Build 0)  -->
<svg version="1.1" id="Calque_1" xmlns="http://www.w3.org/2000/svg" xmlns:xlink="http://www.w3.org/1999/xlink" x="0px" y="0px"
	 viewBox="0 0 290.9 16.74" style="enable-background:new 0 0 290.9 16.74;" xml:space="preserve">
<style type="text/css">
	.st0{fill:#FDCF3D;}
</style>
<g>
	<path class="st0" d="M5.34,12.72c-1.04,0.18,0.59,0.34-0.67,0.22C4.79,12.76,4.99,12.61,5.34,12.72z"/>
	<path class="st0" d="M287.22,10.07c-1.66,0.59-3.65,0.47-5.64,0.3c-2-0.13-4.03-0.32-5.9-0.03c-0.44,0.03,0.14-0.62-0.85-0.51
		c-3.62,0.75-9.25-0.01-13.6-0.85l0.27-0.17c-0.83-0.16-1.87,0.39-2.75,0.28c0-0.12,0.29-0.16,0.09-0.32
		c-0.23,0.35-1.6,0.11-1.98,0.36c-0.34-0.15-0.3-0.43-0.74-0.6l-0.52,0.39c-1.44,0.91-3.41-0.19-5.34,0.24
		c0.1-0.09,0.29-0.16,0.14-0.25c-3.09,0.47-6.94,0.23-10.38,0.35c0.14-0.14,0.28-0.39,0.08-0.56c-0.18,0.42-1.25,0.5-2.17,0.55
		c-0.4-0.45-1.59,0.35-2.67,0.08l0.09-0.09c-0.81,0.43-1.18-0.3-1.84,0.23l-0.5-0.36c-0.37,0.6-1.15-0.35-1.82-0.06l0.02,0.13
		c-0.63,0.13-0.94-0.19-1.52-0.1L229.65,9c-1.36,0.12-2.13-0.24-2.11,0.24c-0.46-0.4,1.31-0.14,0.59-0.72
		c-4.46,0.37-9.05,0.18-13.52,0.07c-0.5-0.2-0.83-0.27-0.94-0.46c-0.45,0.09-1.69,0.05-2.1,0.28c0.15-0.01-0.28-0.25-0.52-0.28
		c-0.81-0.2-0.9,0.51-1.79,0.27c0.36-0.12,0.48-0.27,0.37-0.45c-0.77,0.35-1.79,0.28-2.7,0.38c0.14-0.08,0.36-0.12,0.33-0.27
		c-1,0.41-1.8-0.12-2.67,0.13l0.33-0.27c-1.39-0.36-0.42,0.57-1.62,0.35c0.29-0.08,0.19-0.19,0.25-0.3
		c-1.13,0.48-2.95,0.29-4.07,0.44c0.07-0.04,0.05-0.11,0.05-0.11c-1.22,0.04-2.49-0.14-3.84,0.06c-0.49-0.13,0.17-0.67-1.12-0.6
		c0.04,0.56-2.2,0.19-1.44,0.83c-1.1-0.11-2.84-0.35-3.58-0.16c0.5-0.21-0.53-0.69,0.39-0.72l-0.69-0.34
		c0.11-0.23,0.71,0.08,0.5-0.2c-0.46,0.02-1.8,0.22-2.21,0.13c-0.86,0.33-1.65,0.96-3.02,1.02c0.65-0.21-0.36-0.62,0.08-0.71
		l-1.94,1.05c-0.46,0.02-0.09-0.44-0.76-0.3c0.03,0.15-0.26,0.23-0.46,0.35c-0.17-0.06-1.91,0.12-2.1-0.43
		c-0.2-0.22,0.75-0.11,0.24-0.31c-0.85,0-0.89,0.18-1.73,0.18l-0.02-0.07c-0.56-0.09-1.65,0.22-1.05,0.53
		c0.39,0.02-0.15-0.33,0.43-0.17c-0.4,0.31-1.38,0.39-2.23,0.39c0.29-0.09,0.26-0.23,0.37-0.39c-1.14,0.42-2.35,0.55-3.62,0.73
		c-0.02,0.26,0.48-0.47,0.66-0.33c-1.63-0.37-3.37,0.5-4.72-0.03c0.22-0.05,0.12,0.37,0.1,0.3c-0.78-0.04-0.75-0.41-1.26-0.27
		c-0.05-0.22-0.64,0.07-1.17,0.13c-0.27,0.16-0.14-0.11,0.32-0.13C164.92,9,161.98,9.33,160.29,9c0.03,0.15-1.04,0.54-1.43,0.52
		l0.15-0.34c-0.36-0.21-1.31,0.03-1.37-0.27c-0.83,0.41,3.2-0.34,2.08-0.03c-0.29-0.29-1.57,0.54-1.32,0.07
		c-0.78,0.01-1.54,0.39-2.29,0.08c0.22,0.05,0.63-0.48,0-0.45c-1.11,0.07-0.32,0.17-1.22,0.28L154.32,9
		c-0.04,0.33-0.99-0.04-0.58,0.33c-0.14-0.28-1.62,0.18-1.5-0.38l0.15-0.44c-0.48,0.03-0.79,0.46-1.16,0.66
		c-0.06-0.04-0.19-0.13-0.17-0.2c-0.07,0.67-1.15-0.05-1.72,0.47c-1.01-0.23-2.56-0.01-3.04-0.42c-0.77,0.21-1.48,0.45-2.37,0.31
		c0.18-0.06,0.42-0.08,0.47-0.23c-0.56-0.19-0.69-0.02-1.2,0.09c0.11-0.1-1.11-0.39-1.73-0.62c-0.77,0.2-0.5,0.56-0.58,0.78
		c-0.71-0.66-2.17,0.45-3.06-0.14c0.27-0.09,1.12-0.34,0.48-0.5c-0.71-0.65-1.42,0.5-2.55,0.2l0.28,0.54
		c-0.51-0.33-1.67,0.34-1.56-0.22c-0.38,0.2-1.34-0.16-1.21,0.37c-1.87-0.43-4.53,0.33-5.69-0.61c-0.27,0.09-0.93,0.01-0.79,0.28
		c0.45,0.29,0.62-0.22,0.79-0.02c-0.24,0.02-0.29,0.17-0.31,0.24c-0.58-0.11-1.04-0.15-0.5-0.6c-1.3-0.31-1.32,0.92-2.96,0.74
		c0.07-0.22-0.06-0.31-0.54-0.26l-0.9,0.4c-1.06-0.07-0.61-0.49-0.64-0.86c-0.57,0.08-1.26,0.07-1.51,0.36l-0.7-0.46
		c0.51,0.33-0.46,0.24-0.73,0.33l0.27-0.1c-0.11-0.16-0.76-0.04-1.09,0.01c0.08,0.23,0.75,0.31,1.12,0.37
		c-0.29,0.17-0.74,0.14-1.12,0.34c0.12-0.37-0.93-0.24-1.38-0.27c-0.52-0.07-0.58,0.34-0.73,0.33c-0.02-0.19-0.84-0.01-0.45-0.29
		c0.17-0.06,0.41,0.18,0.69,0c-0.34-0.13-0.31-0.47-1.01-0.21c-0.53,0.19,0.15,0.72-0.86,0.51c0.26-0.1,0.31-0.24,0.51-0.38
		l-0.95-0.17l-0.03,0.33c-0.13-0.08-0.04-0.11-0.1-0.16c-0.27,0.36-1.44,0.14-1.65,0.54c-0.48,0.04-1.01-0.21-1.47-0.24l0.09-0.03
		c-0.56-0.18-1.3-0.04-1.76,0.2l0.02-0.07c-0.3-0.02-1.02,0.05-1.4,0.25c-0.78-0.24-0.29-1.26-1.13-0.81
		c-0.78,0.03-1.21,0.65-0.89,0.85c-1.41-0.18-2.98,0.41-4.3-0.07c-0.2,0.14-0.07,0.22-0.48,0.31c-2.06-0.07-4.33,0.53-5.99-0.08
		c0.59-0.16,0.03-0.33,0.01-0.53c-0.48,0.31-0.6-0.29-0.76,0.23c0.06,0.3,0.01,0.45,0.6,0.55c-1.22,0.2-3.09,0.25-3.78-0.01
		c0.35,0.13,0.09,0.23-0.18,0.33c0.07-0.49-0.84-0.52-1.51-0.33l-0.09,0.3l-0.46-0.28c-0.26,0.1-0.27,0.63-0.96,0.37
		c-0.04-0.11-0.08-0.23-0.21-0.3c-0.7,0.27-1.68,0.71-2.46,0.49l-0.65-0.4c-0.33,0.06-0.87,0.34-0.29,0.44
		c-1.32-0.21-2.17-0.21-2.6-0.56c-2.22,0.99-5.5,1.15-8.13,1.2l0.07-0.22c-0.71-0.17-0.35,0.4-0.85,0.27
		c0.22-0.22-0.56-0.43-0.01-0.71c-1.02-0.18-1.28,0.44-1.94,0.57c-0.09,0.29,0.52-0.21,0.41,0.16c-0.11,0.11-1.41-0.16-1.54,0.29
		c-0.26-0.16-0.08-0.49,0.05-0.67l-0.61,0.24c-0.78-0.47,1.68-0.99,0.86-1.58l-0.57,0.1c-0.56-0.43,1.48-0.59,0.05-0.68
		c-0.61,0.24-1.11,0.9-0.55,1.07c-1.28,0.18-0.55,1.07-1.94,1.1c-0.39-0.24,1.11-0.11,0.82-0.46c-0.67-0.32-1.3,0.26-1.89,0.16
		c0.65,0.13,0.13,0.6-0.28,0.7c-0.71-0.17,0.44-0.43-0.56-0.43c-0.15,0.26-1.06,0.49-0.26,0.63c-0.33,0.59-1.05-0.11-1.57,0.36
		c-0.35-0.38,0.98-0.98-0.12-1.13c0.19,0.38-1.33,0.59-0.72,1.14c-0.44-0.09-0.5-0.39-0.19-0.65c-0.63-0.21-1.45,0.78-1.7,0.02
		L60,12.52c-0.2-0.12-0.48-0.2-0.8-0.4c-0.54,0.02-1.72,0.62-1.7,0.02c-0.17,0.07-1.41,0.11-0.91,0.49
		c0.78,0.21,0.87-0.35,1.32,0.19c-0.57-0.43-1.1,0.11-1.54,0.29l-0.08-0.23c-0.26,0.1-0.87,0.09-1.02,0.35
		c0.19-0.14,0.08-0.29-0.13-0.34l-0.26,0.37c-1.06,0.24-0.29-0.6-1.32-0.44l0.78-0.32c-0.17,0.07-0.54-0.24-1.04-0.1
		c-0.18,0.33-0.52,0.74-0.67,1c-0.58,0.17-0.28-0.35-0.84,0.02l0.74-0.43c0.11-0.11-0.54-0.5-1.33-0.45
		c-0.5,0.14-1.25,0.65-0.45,0.78c-0.39,0.03-0.96-0.14-0.66-0.39c-0.89,0.16,0.14,0.34-0.62,0.58c-0.33-0.2-1.33-0.44-1.94-0.72
		l0.77-0.58l-0.54,0.03c0.67-0.47-0.37-0.31-0.01-0.78c-0.37-0.05-0.8,0.13-1.15,0.27c1.11,0.66-1.14,1.06-0.79,1.7
		c-1.45,0.26-1.01-1.56-2.48-0.43c0.26,0.16-0.43,0.7,0.48,0.46c-0.91-0.02-0.58,0.7-1.67,0.49c0.78-0.32-0.89-0.62,0.23-1.08
		c-0.06,0.22,0.65,0.13,0.82,0.06c-0.39-0.23,0.04-0.67-0.9-0.62c-0.56,0.1-1.34,0.15-1.21,0.49c0.05,0.38,0.87-0.09,0.53,0.31
		c-1.13,0.2-1.35-0.37-1.78,0.33c0.71-0.09,0.92,0.29,0.92,0.55l-0.82,0.21l0.15-0.26c-1.34-0.1-0.37,0.48-1.66,0.5l-0.64-0.46
		c0.28-0.45,1.89,0.07,1.62-0.62c-0.84,0.03-1.1,0.4-1.9,0.27c0.17-0.07,0.41-0.1,0.58-0.18c-0.3,0-0.66-0.91-1.83-0.29
		c-0.61,0.25-0.15,0.26-0.15,0.52c-1.34,0.17-1.73,0.46-2.6,0.56c0.15-0.52-1.54,0.05-0.61-0.53c0.46,0.27,2.41,0.11,2.86-0.41
		c-0.53-0.57,1.07,0.01,1.32-0.61c-1.08,0.06-1.07-0.54-1.27-0.92c-0.3-0.01-0.58,0.18-0.76,0.25c-0.1,0.37,0.29,0.34,0.34,0.72
		c-1.21-0.02-2.37,0.26-3.01,0.66c-0.42-0.15-0.31-0.53,0.16-0.59c-1.43,0.2-2.97,0.25-4.34,0.23c0.92,0.54-1.51,0.24-0.88,0.7
		c0.74,0.09,1.4,0.47,1.01,0.76c-0.46-0.01,0-0.26-0.2-0.38c-0.56,0.36-0.94-0.46-1.48,0.09c1.3-0.28,0.21-0.75,0.42-1.23
		c-0.93,0.33,0.02-0.34-0.92-0.27c-0.93,0.32-2.07,0.6-3.11,0.77c-1.35-0.36-3.34,0.24-4.51,0.34c-0.63-0.19-0.25-0.75-0.93-0.79
		c-0.78,0.07,0.62,0.53-0.55,0.37l0.1-0.11c-0.34,0.15-2.15-0.2-2.44,0.59l0.32-0.6c-0.22-0.04-0.41,0.11-0.59,0.18
		c-0.02-0.19-0.29-0.34,0.06-0.48c-0.75-0.34-1.5,0.18-2.28,0.25l0.53,0.3c-1.31,0.37-2.23,0.1-3.51,0.31l0.01-0.34L8.5,13.75
		c0.16-0.33-0.56-0.49-0.94-0.19l1.93-0.96c0.57,0.15-0.57,0.45-0.2,0.75c0.32,0.26,1.5,0.08,1.67-0.25c-0.46,0-0.48,0.07-0.82,0.22
		c-0.19-0.45,0.51-0.48,0.83-0.82c-0.24,0.04-0.59-0.08-0.63,0.07c0.45-0.26,0.92-0.33,1.71-0.4c-0.52,0.22,0.31,0.26,0.12,0.41
		c0.03-0.41,0.77-0.59,1.75-0.55c0.73,0.42,1.8-0.44,2.93-0.39c-0.42,0.45-0.98,0.82-1.65,1.04c0.72,0.15,0.78-0.07,1.5,0.09
		c0.32-0.33,0.53-0.82,1.43-1.08l0.07,0.3c0.82-0.22,0.79-0.67,1.86-0.66c1.83,0.01,3.7-0.11,5.08-0.17l0.07,0.3
		c0.73-0.7,2.55-0.41,3.57-0.77c1.79,0.18,3.82-0.54,4.76-0.08c3.1-0.43,5.81-0.86,9.06-0.92l-0.52,0.47
		c0.56-0.36,0.39,0.23,0.96,0.14c-0.67-0.32,0.76-0.5,1.15-0.8c1.46,0.26,3.29-0.22,4.54-0.6l0.07,0.3
		c1.26-0.64,2.83-0.23,4.44-0.23c0.19,0.12,0.5,0.38,0.97,0.32c0.85-0.54,1.3-0.53,2.57-0.91c0.93-0.04,2.46,0,3.42,0.15
		c3.48-0.86,7.09-0.59,10.72-1.18l0.28,0.34c3.51-0.94,7.9-0.39,10.91-0.91L81.82,7.4c0.95,0.15,2.15-0.24,1.9-0.67
		c0.96,0.15,2.36-0.39,2.98,0.09c0.98,0.07,1.18-0.33,1.98-0.44c1.95,0.15,2.68,0.09,4.51-0.08l-0.46-0.02
		c-0.2,0.14-0.21,0.4,0.25,0.43c0.68-0.19,2.52,0.09,1.82-0.62c1.97,0.36,4.56-0.48,6.48,0.03c-0.17-0.2,0.31-0.25,0.51-0.39
		c1.72-0.06,3.54,0.29,4.9-0.09c0.28,0.09-0.43,0.35,0.27,0.35c0.41-0.08,0-0.26,0.51-0.38c2.78-0.43,5.65,0.26,8.18,0.11
		c4.49-0.49,9.2-0.39,13.51-0.49l-0.05,0.15c1.44-0.58,3.4,0.53,4.54-0.33c0.34,0.14,1.31,0.05,1.05,0.33
		c1.15-0.41,3.23,0.33,4.88-0.19c-0.15-0.01-0.24,0.02-0.42,0.08c1.68,0.3,3.16-0.14,4.94,0.14c-0.18,0.06-0.51,0.11-0.56,0.26
		c0.69,0.28,1.62-0.63,2,0.08c0.39-0.01,0.28-0.36,0.04-0.33c3.88,0.26,8.02-0.22,12.06-0.39c2.9,0.43,0.18,1.19,2.46,0.67
		c0.19,0.14,0.14-0.27,0.17-0.12c0.88-0.19,1.37,0.79,1.99,0.43c-0.25-0.43,0.41-0.24,0.43-0.5c1.77,0.29,2.12,0.68,3.52,0.35
		l-0.11,0.23c1.64-0.64,3.53-0.29,4.92-1.03c4.52-0.07,8.94-0.14,13.33-0.22c4.4-0.09,8.76-0.16,13.17-0.11
		c8.7,0.27,17.23,0.14,26.05,0.75c2.05,0.65,2.21,0.63,4.49,0.46c-0.09,0.09-0.24,0.11-0.09,0.21c0.13-0.49,1.6,0,1.83-0.46
		c3.26,0.19,6.27,0.14,9.63,0.24c-0.53,0.04-0.81,0.43-0.18,0.42l0.67-0.29l0.1,0.14c0.43-0.06,0.91-0.29,0.47-0.46
		c8.45-0.17,16.72,1.12,24.99,1.3c1.95,0.28,4.75,0.2,6.89,0.19c3.15,0.45,6.14,0.87,9.15,1.14c1.58,0.16,3,0.3,4.5,0.32
		c0.73,0.01,1.5,0,2.09-0.08c0.07-0.01,0.13-0.02,0.18-0.03c0.07,0.07-0.03-0.33,0.22,0.67l0.09,0.25l0.05,0.19
		c0.04,0.12,0.1,0.25,0.16,0.36c0.02,0.08,0.07,0.15,0.13,0.21c0.05,0.04,0.02,0.04,0.05,0.05l0.02,0.01h0.01h0.01
		c0.09,0.02-0.72-0.17-0.37-0.09c0.11,0.05,0.27,0.03,0.29,0.02c0.05-0.03,0-0.01-0.02,0.07c-0.06,0.17-0.01,0.47,0.05,0.62
		c0.04,0.13,0.06,0.11-0.04-0.02c-0.07-0.12-0.27-0.28-0.37-0.32c-0.12-0.04-0.06,0.02,0.05-0.1c0,0-0.01,0.01-0.04,0.04
		c-0.04,0.03-0.09,0.04-0.09,0.04c-0.01,0,0.07-0.01,0.21,0.1c0.13,0.09,0.31,0.33,0.31,0.35c0.01,0.02,0,0-0.02-0.04
		c-0.01-0.02-0.03-0.09-0.05-0.17c-0.04-0.14-0.06-0.41,0-0.52c0.02-0.04,0.03-0.05,0.03-0.05c0.01-0.01,0,0-0.03,0.01
		c-0.02,0-0.05,0-0.13,0.01c-0.03,0-0.06-0.01-0.09-0.01l-0.04-0.01h-0.01h-0.01l0,0c0.17,0.04-0.38-0.09,0.38,0.09h-0.02
		c-0.05-0.01-0.17-0.14-0.26-0.38c-0.06-0.11-0.13-0.3-0.14-0.37c0,0.01-0.01,0.02-0.01,0.03C288.44,9.82,287.84,9.99,287.22,10.07z
		"/>
	<path class="st0" d="M6.59,12.58c0.24,0.23,0.99,0.31,0.43,0.68C6.93,13.03,6.53,12.8,6.59,12.58z"/>
	<path class="st0" d="M26.34,13.67c0.02-0.07,0.29,0.08,0.35,0.12c-0.24,0.03-0.45,0.26-0.65,0.14
		C26.29,13.9,26.24,13.78,26.34,13.67z"/>
	<path class="st0" d="M31.36,13.49c-0.06,0.22-1.12,0.47-1.75,0.54L31.36,13.49z"/>
	<path class="st0" d="M36.07,14.08c0.41,0.16,0.31,0.27-0.23,0.3C35.79,14.27,35.97,14.2,36.07,14.08z"/>
	<path class="st0" d="M36.37,13.56c0.39-0.03,0.59,0.09,0.78,0.2C37.13,13.58,36.27,13.94,36.37,13.56z"/>
	<path class="st0" d="M46.53,13.59c0.24-0.03,0.76-0.24,1-0.01C47.26,13.42,46.36,13.92,46.53,13.59z"/>
	<path class="st0" d="M51.21,12.99c0.15,0.01,0.22,0.04,0.39-0.03c0.28,0.08,0,0.26-0.24,0.3L51.21,12.99z"/>
	<polygon class="st0" points="136.88,9.31 136.38,9.43 136.45,9.21 	"/>
	<path class="st0" d="M174.47,9.24c0.51-0.13,0.35,0.21,0.44,0.24C174.45,9.5,175.08,9.22,174.47,9.24z"/>
	<polygon class="st0" points="194.76,8.39 194.61,8.39 194.66,7.95 	"/>
</g>
</svg>
